<mxfile host="app.diagrams.net" modified="2022-02-22T09:17:22.049Z" agent="5.0 (Macintosh; Intel Mac OS X 10_15_7) AppleWebKit/537.36 (KHTML, like Gecko) Chrome/98.0.4758.102 Safari/537.36" etag="HXarFoe3yDqktwuUnmKn" version="16.6.1" type="github">
  <diagram id="2KmrYP-xQT_wF9Lwto3m" name="Page-1">
    <mxGraphModel dx="1475" dy="952" grid="1" gridSize="10" guides="1" tooltips="1" connect="1" arrows="1" fold="1" page="1" pageScale="1" pageWidth="4681" pageHeight="3300" math="0" shadow="0">
      <root>
        <mxCell id="0" />
        <mxCell id="1" parent="0" />
        <mxCell id="f2Ed95oBEs6oWtpH4PC0-22" value="" style="rounded=1;whiteSpace=wrap;html=1;strokeColor=#120000;fillColor=#E6E6E6;gradientColor=none;labelBackgroundColor=#E6E6E6;" vertex="1" parent="1">
          <mxGeometry x="660" y="250" width="1010" height="180" as="geometry" />
        </mxCell>
        <mxCell id="f2Ed95oBEs6oWtpH4PC0-5" value="" style="rounded=1;whiteSpace=wrap;html=1;strokeColor=#120000;fillColor=#E6E6E6;gradientColor=none;labelBackgroundColor=#E6E6E6;" vertex="1" parent="1">
          <mxGeometry x="670" y="40" width="680" height="130" as="geometry" />
        </mxCell>
        <mxCell id="f2Ed95oBEs6oWtpH4PC0-46" style="edgeStyle=none;rounded=0;orthogonalLoop=1;jettySize=auto;html=1;entryX=0;entryY=0.5;entryDx=0;entryDy=0;fontSize=10;endArrow=open;endFill=0;strokeWidth=2;" edge="1" parent="1" target="f2Ed95oBEs6oWtpH4PC0-24">
          <mxGeometry relative="1" as="geometry">
            <mxPoint x="640" y="340" as="sourcePoint" />
          </mxGeometry>
        </mxCell>
        <mxCell id="HW9NstIydAIlGwlko2XY-2" value="" style="ellipse;html=1;shape=startState;fillColor=#000000;strokeColor=#030000;gradientColor=none;" parent="1" vertex="1">
          <mxGeometry x="620" y="325" width="30" height="30" as="geometry" />
        </mxCell>
        <mxCell id="HW9NstIydAIlGwlko2XY-4" value="" style="ellipse;html=1;shape=endState;fillColor=#000000;strokeColor=#120000;" parent="1" vertex="1">
          <mxGeometry x="1320" y="95" width="30" height="30" as="geometry" />
        </mxCell>
        <mxCell id="HW9NstIydAIlGwlko2XY-9" value="De Key" style="swimlane;childLayout=stackLayout;resizeParent=1;resizeParentMax=0;horizontal=0;startSize=20;horizontalStack=0;strokeColor=#120000;fillColor=none;gradientColor=none;" parent="1" vertex="1">
          <mxGeometry x="90" y="270" width="480" height="340" as="geometry" />
        </mxCell>
        <mxCell id="HW9NstIydAIlGwlko2XY-10" value="Adminstrative department" style="swimlane;startSize=20;horizontal=0;strokeColor=#120000;fillColor=none;gradientColor=none;" parent="HW9NstIydAIlGwlko2XY-9" vertex="1">
          <mxGeometry x="20" width="460" height="180" as="geometry">
            <mxRectangle x="20" width="460" height="20" as="alternateBounds" />
          </mxGeometry>
        </mxCell>
        <mxCell id="HW9NstIydAIlGwlko2XY-11" value="Legal Department" style="swimlane;startSize=20;horizontal=0;strokeColor=#120000;fillColor=none;gradientColor=none;" parent="HW9NstIydAIlGwlko2XY-9" vertex="1">
          <mxGeometry x="20" y="180" width="460" height="160" as="geometry" />
        </mxCell>
        <mxCell id="f2Ed95oBEs6oWtpH4PC0-2" value="Student" style="swimlane;horizontal=0;fontSize=12;" vertex="1" parent="1">
          <mxGeometry x="90" y="70" width="200" height="200" as="geometry" />
        </mxCell>
        <mxCell id="f2Ed95oBEs6oWtpH4PC0-17" style="edgeStyle=orthogonalEdgeStyle;rounded=0;orthogonalLoop=1;jettySize=auto;html=1;exitX=1;exitY=0.5;exitDx=0;exitDy=0;entryX=0;entryY=0.5;entryDx=0;entryDy=0;fontSize=16;endArrow=open;endFill=0;strokeWidth=2;" edge="1" parent="1" source="f2Ed95oBEs6oWtpH4PC0-11">
          <mxGeometry relative="1" as="geometry">
            <mxPoint x="1130" y="107.5" as="targetPoint" />
          </mxGeometry>
        </mxCell>
        <mxCell id="f2Ed95oBEs6oWtpH4PC0-11" value="&lt;font style=&quot;font-size: 15px&quot;&gt;register apartment &lt;br&gt;as available&lt;/font&gt;" style="rounded=1;whiteSpace=wrap;html=1;strokeColor=#120000;fillColor=none;gradientColor=none;" vertex="1" parent="1">
          <mxGeometry x="860" y="77.5" width="140" height="60" as="geometry" />
        </mxCell>
        <mxCell id="f2Ed95oBEs6oWtpH4PC0-12" value="Making apartment available" style="text;html=1;align=center;verticalAlign=middle;resizable=0;points=[];autosize=1;strokeColor=none;fillColor=none;fontSize=17;fontStyle=0" vertex="1" parent="1">
          <mxGeometry x="820" y="40" width="220" height="30" as="geometry" />
        </mxCell>
        <mxCell id="f2Ed95oBEs6oWtpH4PC0-14" value="" style="rounded=0;whiteSpace=wrap;html=1;labelBackgroundColor=#E6E6E6;fontSize=16;fillColor=#E6E6E6;" vertex="1" parent="1">
          <mxGeometry x="630" y="90" width="50" height="35" as="geometry" />
        </mxCell>
        <mxCell id="f2Ed95oBEs6oWtpH4PC0-16" style="edgeStyle=orthogonalEdgeStyle;rounded=0;orthogonalLoop=1;jettySize=auto;html=1;exitX=1;exitY=0.5;exitDx=0;exitDy=0;fontSize=16;strokeWidth=2;endArrow=open;endFill=0;entryX=0;entryY=0.5;entryDx=0;entryDy=0;" edge="1" parent="1" source="f2Ed95oBEs6oWtpH4PC0-15" target="f2Ed95oBEs6oWtpH4PC0-11">
          <mxGeometry relative="1" as="geometry">
            <mxPoint x="805" y="180" as="targetPoint" />
          </mxGeometry>
        </mxCell>
        <mxCell id="f2Ed95oBEs6oWtpH4PC0-15" value="&lt;meta charset=&quot;utf-8&quot;&gt;&lt;span style=&quot;color: rgb(0, 0, 0); font-family: helvetica; font-size: 16px; font-style: normal; font-weight: 400; letter-spacing: normal; text-align: center; text-indent: 0px; text-transform: none; word-spacing: 0px; display: inline; float: none;&quot;&gt;request to move out&lt;/span&gt;" style="rounded=1;whiteSpace=wrap;html=1;labelBackgroundColor=none;fontSize=16;fillColor=#E6E6E6;" vertex="1" parent="1">
          <mxGeometry x="690" y="80" width="130" height="55" as="geometry" />
        </mxCell>
        <mxCell id="f2Ed95oBEs6oWtpH4PC0-19" style="edgeStyle=orthogonalEdgeStyle;rounded=0;orthogonalLoop=1;jettySize=auto;html=1;exitX=1;exitY=0.5;exitDx=0;exitDy=0;exitPerimeter=0;entryX=0;entryY=0.5;entryDx=0;entryDy=0;fontSize=16;endArrow=open;endFill=0;strokeWidth=2;" edge="1" parent="1" source="f2Ed95oBEs6oWtpH4PC0-18" target="HW9NstIydAIlGwlko2XY-4">
          <mxGeometry relative="1" as="geometry" />
        </mxCell>
        <mxCell id="f2Ed95oBEs6oWtpH4PC0-18" value="&lt;span&gt;update availability&lt;br&gt;&lt;div style=&quot;text-align: left&quot;&gt;&lt;span&gt;apartment&lt;/span&gt;&lt;/div&gt;&lt;/span&gt;" style="html=1;shadow=0;dashed=0;align=center;verticalAlign=middle;shape=mxgraph.arrows2.arrow;dy=0;dx=25.76;notch=0;labelBackgroundColor=none;fontSize=16;fillColor=#E6E6E6;" vertex="1" parent="1">
          <mxGeometry x="1130" y="78" width="160" height="64" as="geometry" />
        </mxCell>
        <mxCell id="f2Ed95oBEs6oWtpH4PC0-20" value="moving form" style="text;html=1;align=center;verticalAlign=middle;resizable=0;points=[];autosize=1;strokeColor=none;fillColor=none;fontSize=16;" vertex="1" parent="1">
          <mxGeometry x="570" y="70" width="100" height="20" as="geometry" />
        </mxCell>
        <mxCell id="f2Ed95oBEs6oWtpH4PC0-21" value="[ registered ]&amp;nbsp;" style="text;html=1;align=center;verticalAlign=middle;resizable=0;points=[];autosize=1;strokeColor=none;fillColor=none;fontSize=15;" vertex="1" parent="1">
          <mxGeometry x="1010" y="80" width="100" height="20" as="geometry" />
        </mxCell>
        <mxCell id="f2Ed95oBEs6oWtpH4PC0-26" style="edgeStyle=orthogonalEdgeStyle;rounded=0;orthogonalLoop=1;jettySize=auto;html=1;exitX=1;exitY=0.5;exitDx=0;exitDy=0;fontSize=15;endArrow=open;endFill=0;strokeWidth=2;" edge="1" parent="1" source="f2Ed95oBEs6oWtpH4PC0-24">
          <mxGeometry relative="1" as="geometry">
            <mxPoint x="870" y="340.5" as="targetPoint" />
          </mxGeometry>
        </mxCell>
        <mxCell id="f2Ed95oBEs6oWtpH4PC0-24" value="&lt;span style=&quot;color: rgb(0 , 0 , 0) ; font-family: &amp;#34;helvetica&amp;#34; ; font-size: 16px ; font-style: normal ; font-weight: 400 ; letter-spacing: normal ; text-align: center ; text-indent: 0px ; text-transform: none ; word-spacing: 0px ; display: inline ; float: none&quot;&gt;submit application&lt;/span&gt;" style="rounded=1;whiteSpace=wrap;html=1;labelBackgroundColor=none;fontSize=16;fillColor=#E6E6E6;" vertex="1" parent="1">
          <mxGeometry x="680" y="312.5" width="130" height="55" as="geometry" />
        </mxCell>
        <mxCell id="f2Ed95oBEs6oWtpH4PC0-28" style="edgeStyle=orthogonalEdgeStyle;rounded=0;orthogonalLoop=1;jettySize=auto;html=1;fontSize=15;endArrow=open;endFill=0;strokeWidth=2;entryX=0;entryY=0.5;entryDx=0;entryDy=0;" edge="1" parent="1" target="f2Ed95oBEs6oWtpH4PC0-27">
          <mxGeometry relative="1" as="geometry">
            <mxPoint x="900" y="340" as="sourcePoint" />
            <mxPoint x="940" y="335" as="targetPoint" />
            <Array as="points" />
          </mxGeometry>
        </mxCell>
        <mxCell id="f2Ed95oBEs6oWtpH4PC0-25" value="" style="verticalLabelPosition=bottom;verticalAlign=top;html=1;shape=mxgraph.flowchart.collate;labelBackgroundColor=none;fontSize=15;fillColor=#E6E6E6;" vertex="1" parent="1">
          <mxGeometry x="850" y="315" width="60" height="50" as="geometry" />
        </mxCell>
        <mxCell id="f2Ed95oBEs6oWtpH4PC0-31" style="rounded=0;orthogonalLoop=1;jettySize=auto;html=1;exitX=1;exitY=0.5;exitDx=0;exitDy=0;entryX=0;entryY=0.5;entryDx=0;entryDy=0;fontSize=15;endArrow=open;endFill=0;strokeWidth=2;" edge="1" parent="1" source="f2Ed95oBEs6oWtpH4PC0-36" target="f2Ed95oBEs6oWtpH4PC0-29">
          <mxGeometry relative="1" as="geometry" />
        </mxCell>
        <mxCell id="f2Ed95oBEs6oWtpH4PC0-32" style="edgeStyle=none;rounded=0;orthogonalLoop=1;jettySize=auto;html=1;exitX=1;exitY=0.5;exitDx=0;exitDy=0;entryX=0;entryY=0.5;entryDx=0;entryDy=0;fontSize=15;endArrow=open;endFill=0;strokeWidth=2;" edge="1" parent="1" source="f2Ed95oBEs6oWtpH4PC0-36" target="f2Ed95oBEs6oWtpH4PC0-30">
          <mxGeometry relative="1" as="geometry" />
        </mxCell>
        <mxCell id="f2Ed95oBEs6oWtpH4PC0-40" style="edgeStyle=none;rounded=0;orthogonalLoop=1;jettySize=auto;html=1;exitX=1;exitY=0.5;exitDx=0;exitDy=0;entryX=0;entryY=0.5;entryDx=0;entryDy=0;fontSize=11;endArrow=open;endFill=0;strokeWidth=2;" edge="1" parent="1" source="f2Ed95oBEs6oWtpH4PC0-27" target="f2Ed95oBEs6oWtpH4PC0-36">
          <mxGeometry relative="1" as="geometry" />
        </mxCell>
        <mxCell id="f2Ed95oBEs6oWtpH4PC0-27" value="&lt;span style=&quot;color: rgb(0 , 0 , 0) ; font-family: &amp;#34;helvetica&amp;#34; ; font-size: 16px ; font-style: normal ; font-weight: 400 ; letter-spacing: normal ; text-align: center ; text-indent: 0px ; text-transform: none ; word-spacing: 0px ; display: inline ; float: none&quot;&gt;review applications&lt;/span&gt;" style="rounded=1;whiteSpace=wrap;html=1;labelBackgroundColor=none;fontSize=16;fillColor=#E6E6E6;" vertex="1" parent="1">
          <mxGeometry x="940" y="312.5" width="130" height="55" as="geometry" />
        </mxCell>
        <mxCell id="f2Ed95oBEs6oWtpH4PC0-44" style="edgeStyle=none;rounded=0;orthogonalLoop=1;jettySize=auto;html=1;exitX=1;exitY=0.5;exitDx=0;exitDy=0;entryX=0;entryY=0.5;entryDx=0;entryDy=0;fontSize=10;endArrow=open;endFill=0;strokeWidth=2;" edge="1" parent="1" source="f2Ed95oBEs6oWtpH4PC0-29" target="f2Ed95oBEs6oWtpH4PC0-41">
          <mxGeometry relative="1" as="geometry" />
        </mxCell>
        <mxCell id="f2Ed95oBEs6oWtpH4PC0-29" value="&lt;span style=&quot;color: rgb(0 , 0 , 0) ; font-family: &amp;#34;helvetica&amp;#34; ; font-size: 16px ; font-style: normal ; font-weight: 400 ; letter-spacing: normal ; text-align: center ; text-indent: 0px ; text-transform: none ; word-spacing: 0px ; display: inline ; float: none&quot;&gt;candidates&lt;/span&gt;" style="rounded=1;whiteSpace=wrap;html=1;labelBackgroundColor=none;fontSize=16;fillColor=#E6E6E6;" vertex="1" parent="1">
          <mxGeometry x="1280" y="270" width="130" height="55" as="geometry" />
        </mxCell>
        <mxCell id="f2Ed95oBEs6oWtpH4PC0-53" style="edgeStyle=none;rounded=0;orthogonalLoop=1;jettySize=auto;html=1;exitX=1;exitY=0.5;exitDx=0;exitDy=0;entryX=0;entryY=0.5;entryDx=0;entryDy=0;fontSize=17;endArrow=open;endFill=0;strokeWidth=2;" edge="1" parent="1" source="f2Ed95oBEs6oWtpH4PC0-30" target="f2Ed95oBEs6oWtpH4PC0-49">
          <mxGeometry relative="1" as="geometry" />
        </mxCell>
        <mxCell id="f2Ed95oBEs6oWtpH4PC0-30" value="&lt;span style=&quot;color: rgb(0 , 0 , 0) ; font-family: &amp;#34;helvetica&amp;#34; ; font-size: 16px ; font-style: normal ; font-weight: 400 ; letter-spacing: normal ; text-align: center ; text-indent: 0px ; text-transform: none ; word-spacing: 0px ; display: inline ; float: none&quot;&gt;not candidates&lt;/span&gt;" style="rounded=1;whiteSpace=wrap;html=1;labelBackgroundColor=none;fontSize=16;fillColor=#E6E6E6;" vertex="1" parent="1">
          <mxGeometry x="1280" y="362.5" width="130" height="55" as="geometry" />
        </mxCell>
        <mxCell id="f2Ed95oBEs6oWtpH4PC0-33" value="[ not selected&amp;nbsp;]&amp;nbsp;" style="text;html=1;align=center;verticalAlign=middle;resizable=0;points=[];autosize=1;strokeColor=none;fillColor=none;fontSize=11;" vertex="1" parent="1">
          <mxGeometry x="1180" y="380" width="90" height="20" as="geometry" />
        </mxCell>
        <mxCell id="f2Ed95oBEs6oWtpH4PC0-34" value="[ selected ]" style="text;html=1;align=center;verticalAlign=middle;resizable=0;points=[];autosize=1;strokeColor=none;fillColor=none;fontSize=11;" vertex="1" parent="1">
          <mxGeometry x="1180" y="295" width="70" height="20" as="geometry" />
        </mxCell>
        <mxCell id="f2Ed95oBEs6oWtpH4PC0-36" value="" style="rhombus;whiteSpace=wrap;html=1;labelBackgroundColor=none;fontSize=11;fillColor=#E6E6E6;" vertex="1" parent="1">
          <mxGeometry x="1130" y="310" width="60" height="60" as="geometry" />
        </mxCell>
        <mxCell id="f2Ed95oBEs6oWtpH4PC0-45" style="edgeStyle=none;rounded=0;orthogonalLoop=1;jettySize=auto;html=1;exitX=1;exitY=0.5;exitDx=0;exitDy=0;fontSize=10;endArrow=open;endFill=0;strokeWidth=2;" edge="1" parent="1" source="f2Ed95oBEs6oWtpH4PC0-41" target="f2Ed95oBEs6oWtpH4PC0-43">
          <mxGeometry relative="1" as="geometry" />
        </mxCell>
        <mxCell id="f2Ed95oBEs6oWtpH4PC0-41" value="&lt;span style=&quot;color: rgb(0 , 0 , 0) ; font-family: &amp;#34;helvetica&amp;#34; ; font-size: 16px ; font-style: normal ; font-weight: 400 ; letter-spacing: normal ; text-align: center ; text-indent: 0px ; text-transform: none ; word-spacing: 0px ; display: inline ; float: none&quot;&gt;send home-viewing invite&lt;/span&gt;" style="rounded=1;whiteSpace=wrap;html=1;labelBackgroundColor=none;fontSize=16;fillColor=#E6E6E6;" vertex="1" parent="1">
          <mxGeometry x="1460" y="270" width="130" height="55" as="geometry" />
        </mxCell>
        <mxCell id="f2Ed95oBEs6oWtpH4PC0-42" value="{ weight &amp;lt; 11 }" style="text;html=1;align=center;verticalAlign=middle;resizable=0;points=[];autosize=1;strokeColor=none;fillColor=none;fontSize=10;" vertex="1" parent="1">
          <mxGeometry x="1175" y="270" width="80" height="20" as="geometry" />
        </mxCell>
        <mxCell id="f2Ed95oBEs6oWtpH4PC0-43" value="" style="ellipse;html=1;shape=endState;fillColor=#000000;strokeColor=#120000;" vertex="1" parent="1">
          <mxGeometry x="1630" y="282.5" width="30" height="30" as="geometry" />
        </mxCell>
        <mxCell id="f2Ed95oBEs6oWtpH4PC0-48" value="????" style="text;html=1;align=center;verticalAlign=middle;resizable=0;points=[];autosize=1;strokeColor=none;fillColor=none;fontSize=10;" vertex="1" parent="1">
          <mxGeometry x="1195" y="282.5" width="40" height="20" as="geometry" />
        </mxCell>
        <mxCell id="f2Ed95oBEs6oWtpH4PC0-49" value="" style="ellipse;html=1;shape=endState;fillColor=#000000;strokeColor=#120000;" vertex="1" parent="1">
          <mxGeometry x="1450" y="375" width="30" height="30" as="geometry" />
        </mxCell>
        <mxCell id="f2Ed95oBEs6oWtpH4PC0-50" value="Application for available apartments" style="text;html=1;align=center;verticalAlign=middle;resizable=0;points=[];autosize=1;strokeColor=none;fillColor=none;fontSize=17;" vertex="1" parent="1">
          <mxGeometry x="800" y="252.5" width="290" height="30" as="geometry" />
        </mxCell>
        <mxCell id="f2Ed95oBEs6oWtpH4PC0-54" value="" style="rounded=1;whiteSpace=wrap;html=1;strokeColor=#120000;fillColor=#E6E6E6;gradientColor=none;labelBackgroundColor=#E6E6E6;" vertex="1" parent="1">
          <mxGeometry x="670" y="480" width="1090" height="180" as="geometry" />
        </mxCell>
        <mxCell id="f2Ed95oBEs6oWtpH4PC0-55" style="edgeStyle=none;rounded=0;orthogonalLoop=1;jettySize=auto;html=1;entryX=0;entryY=0.5;entryDx=0;entryDy=0;fontSize=10;endArrow=open;endFill=0;strokeWidth=2;" edge="1" parent="1" target="f2Ed95oBEs6oWtpH4PC0-58">
          <mxGeometry relative="1" as="geometry">
            <mxPoint x="650" y="570" as="sourcePoint" />
          </mxGeometry>
        </mxCell>
        <mxCell id="f2Ed95oBEs6oWtpH4PC0-56" value="" style="ellipse;html=1;shape=startState;fillColor=#000000;strokeColor=#030000;gradientColor=none;" vertex="1" parent="1">
          <mxGeometry x="630" y="555" width="30" height="30" as="geometry" />
        </mxCell>
        <mxCell id="f2Ed95oBEs6oWtpH4PC0-57" style="edgeStyle=orthogonalEdgeStyle;rounded=0;orthogonalLoop=1;jettySize=auto;html=1;exitX=1;exitY=0.5;exitDx=0;exitDy=0;fontSize=15;endArrow=open;endFill=0;strokeWidth=2;" edge="1" parent="1" source="f2Ed95oBEs6oWtpH4PC0-58">
          <mxGeometry relative="1" as="geometry">
            <mxPoint x="880" y="570.5" as="targetPoint" />
          </mxGeometry>
        </mxCell>
        <mxCell id="f2Ed95oBEs6oWtpH4PC0-58" value="&lt;span style=&quot;color: rgb(0 , 0 , 0) ; font-family: &amp;#34;helvetica&amp;#34; ; font-size: 16px ; font-style: normal ; font-weight: 400 ; letter-spacing: normal ; text-align: center ; text-indent: 0px ; text-transform: none ; word-spacing: 0px ; display: inline ; float: none&quot;&gt;home-viewing&lt;br&gt;announced&lt;br&gt;&lt;/span&gt;" style="rounded=1;whiteSpace=wrap;html=1;labelBackgroundColor=none;fontSize=16;fillColor=#E6E6E6;" vertex="1" parent="1">
          <mxGeometry x="690" y="542.5" width="130" height="55" as="geometry" />
        </mxCell>
        <mxCell id="f2Ed95oBEs6oWtpH4PC0-59" style="edgeStyle=orthogonalEdgeStyle;rounded=0;orthogonalLoop=1;jettySize=auto;html=1;fontSize=15;endArrow=open;endFill=0;strokeWidth=2;entryX=0;entryY=0.5;entryDx=0;entryDy=0;" edge="1" parent="1" target="f2Ed95oBEs6oWtpH4PC0-64">
          <mxGeometry relative="1" as="geometry">
            <mxPoint x="910" y="570" as="sourcePoint" />
            <mxPoint x="950" y="565" as="targetPoint" />
            <Array as="points" />
          </mxGeometry>
        </mxCell>
        <mxCell id="f2Ed95oBEs6oWtpH4PC0-61" style="rounded=0;orthogonalLoop=1;jettySize=auto;html=1;exitX=1;exitY=0.5;exitDx=0;exitDy=0;entryX=0;entryY=0.5;entryDx=0;entryDy=0;fontSize=15;endArrow=open;endFill=0;strokeWidth=2;" edge="1" parent="1" source="f2Ed95oBEs6oWtpH4PC0-71" target="f2Ed95oBEs6oWtpH4PC0-66">
          <mxGeometry relative="1" as="geometry" />
        </mxCell>
        <mxCell id="f2Ed95oBEs6oWtpH4PC0-62" style="edgeStyle=none;rounded=0;orthogonalLoop=1;jettySize=auto;html=1;exitX=1;exitY=0.5;exitDx=0;exitDy=0;entryX=0;entryY=0.5;entryDx=0;entryDy=0;fontSize=15;endArrow=open;endFill=0;strokeWidth=2;" edge="1" parent="1" source="f2Ed95oBEs6oWtpH4PC0-71" target="f2Ed95oBEs6oWtpH4PC0-68">
          <mxGeometry relative="1" as="geometry" />
        </mxCell>
        <mxCell id="f2Ed95oBEs6oWtpH4PC0-63" style="edgeStyle=none;rounded=0;orthogonalLoop=1;jettySize=auto;html=1;exitX=1;exitY=0.5;exitDx=0;exitDy=0;entryX=0;entryY=0.5;entryDx=0;entryDy=0;fontSize=11;endArrow=open;endFill=0;strokeWidth=2;" edge="1" parent="1" source="f2Ed95oBEs6oWtpH4PC0-64" target="f2Ed95oBEs6oWtpH4PC0-71">
          <mxGeometry relative="1" as="geometry" />
        </mxCell>
        <mxCell id="f2Ed95oBEs6oWtpH4PC0-64" value="&lt;span style=&quot;color: rgb(0 , 0 , 0) ; font-family: &amp;#34;helvetica&amp;#34; ; font-size: 16px ; font-style: normal ; font-weight: 400 ; letter-spacing: normal ; text-align: center ; text-indent: 0px ; text-transform: none ; word-spacing: 0px ; display: inline ; float: none&quot;&gt;review applications&lt;/span&gt;" style="rounded=1;whiteSpace=wrap;html=1;labelBackgroundColor=none;fontSize=16;fillColor=#E6E6E6;" vertex="1" parent="1">
          <mxGeometry x="950" y="542.5" width="130" height="55" as="geometry" />
        </mxCell>
        <mxCell id="f2Ed95oBEs6oWtpH4PC0-65" style="edgeStyle=none;rounded=0;orthogonalLoop=1;jettySize=auto;html=1;exitX=1;exitY=0.5;exitDx=0;exitDy=0;entryX=0;entryY=0.5;entryDx=0;entryDy=0;fontSize=10;endArrow=open;endFill=0;strokeWidth=2;" edge="1" parent="1" source="f2Ed95oBEs6oWtpH4PC0-66" target="f2Ed95oBEs6oWtpH4PC0-73">
          <mxGeometry relative="1" as="geometry" />
        </mxCell>
        <mxCell id="f2Ed95oBEs6oWtpH4PC0-66" value="&lt;span style=&quot;color: rgb(0 , 0 , 0) ; font-family: &amp;#34;helvetica&amp;#34; ; font-size: 16px ; font-style: normal ; font-weight: 400 ; letter-spacing: normal ; text-align: center ; text-indent: 0px ; text-transform: none ; word-spacing: 0px ; display: inline ; float: none&quot;&gt;candidates&lt;/span&gt;" style="rounded=1;whiteSpace=wrap;html=1;labelBackgroundColor=none;fontSize=16;fillColor=#E6E6E6;" vertex="1" parent="1">
          <mxGeometry x="1290" y="500" width="130" height="55" as="geometry" />
        </mxCell>
        <mxCell id="f2Ed95oBEs6oWtpH4PC0-67" style="edgeStyle=none;rounded=0;orthogonalLoop=1;jettySize=auto;html=1;exitX=1;exitY=0.5;exitDx=0;exitDy=0;entryX=0;entryY=0.5;entryDx=0;entryDy=0;fontSize=17;endArrow=open;endFill=0;strokeWidth=2;" edge="1" parent="1" source="f2Ed95oBEs6oWtpH4PC0-68" target="f2Ed95oBEs6oWtpH4PC0-77">
          <mxGeometry relative="1" as="geometry" />
        </mxCell>
        <mxCell id="f2Ed95oBEs6oWtpH4PC0-68" value="&lt;span style=&quot;color: rgb(0 , 0 , 0) ; font-family: &amp;#34;helvetica&amp;#34; ; font-size: 16px ; font-style: normal ; font-weight: 400 ; letter-spacing: normal ; text-align: center ; text-indent: 0px ; text-transform: none ; word-spacing: 0px ; display: inline ; float: none&quot;&gt;not candidates&lt;/span&gt;" style="rounded=1;whiteSpace=wrap;html=1;labelBackgroundColor=none;fontSize=16;fillColor=#E6E6E6;" vertex="1" parent="1">
          <mxGeometry x="1290" y="592.5" width="130" height="55" as="geometry" />
        </mxCell>
        <mxCell id="f2Ed95oBEs6oWtpH4PC0-69" value="[ not selected&amp;nbsp;]&amp;nbsp;" style="text;html=1;align=center;verticalAlign=middle;resizable=0;points=[];autosize=1;strokeColor=none;fillColor=none;fontSize=11;" vertex="1" parent="1">
          <mxGeometry x="1190" y="610" width="90" height="20" as="geometry" />
        </mxCell>
        <mxCell id="f2Ed95oBEs6oWtpH4PC0-70" value="[ selected ]" style="text;html=1;align=center;verticalAlign=middle;resizable=0;points=[];autosize=1;strokeColor=none;fillColor=none;fontSize=11;" vertex="1" parent="1">
          <mxGeometry x="1190" y="525" width="70" height="20" as="geometry" />
        </mxCell>
        <mxCell id="f2Ed95oBEs6oWtpH4PC0-71" value="" style="rhombus;whiteSpace=wrap;html=1;labelBackgroundColor=none;fontSize=11;fillColor=#E6E6E6;" vertex="1" parent="1">
          <mxGeometry x="1140" y="540" width="60" height="60" as="geometry" />
        </mxCell>
        <mxCell id="f2Ed95oBEs6oWtpH4PC0-72" style="edgeStyle=none;rounded=0;orthogonalLoop=1;jettySize=auto;html=1;exitX=1;exitY=0.5;exitDx=0;exitDy=0;fontSize=10;endArrow=open;endFill=0;strokeWidth=2;" edge="1" parent="1" source="f2Ed95oBEs6oWtpH4PC0-73" target="f2Ed95oBEs6oWtpH4PC0-75">
          <mxGeometry relative="1" as="geometry" />
        </mxCell>
        <mxCell id="f2Ed95oBEs6oWtpH4PC0-73" value="&lt;span style=&quot;color: rgb(0 , 0 , 0) ; font-family: &amp;#34;helvetica&amp;#34; ; font-size: 16px ; font-style: normal ; font-weight: 400 ; letter-spacing: normal ; text-align: center ; text-indent: 0px ; text-transform: none ; word-spacing: 0px ; display: inline ; float: none&quot;&gt;send home-viewing invite&lt;/span&gt;" style="rounded=1;whiteSpace=wrap;html=1;labelBackgroundColor=none;fontSize=16;fillColor=#E6E6E6;" vertex="1" parent="1">
          <mxGeometry x="1470" y="500" width="130" height="55" as="geometry" />
        </mxCell>
        <mxCell id="f2Ed95oBEs6oWtpH4PC0-74" value="{ weight &amp;lt; 11 }" style="text;html=1;align=center;verticalAlign=middle;resizable=0;points=[];autosize=1;strokeColor=none;fillColor=none;fontSize=10;" vertex="1" parent="1">
          <mxGeometry x="1185" y="500" width="80" height="20" as="geometry" />
        </mxCell>
        <mxCell id="f2Ed95oBEs6oWtpH4PC0-75" value="" style="ellipse;html=1;shape=endState;fillColor=#000000;strokeColor=#120000;" vertex="1" parent="1">
          <mxGeometry x="1640" y="512.5" width="30" height="30" as="geometry" />
        </mxCell>
        <mxCell id="f2Ed95oBEs6oWtpH4PC0-76" value="????" style="text;html=1;align=center;verticalAlign=middle;resizable=0;points=[];autosize=1;strokeColor=none;fillColor=none;fontSize=10;" vertex="1" parent="1">
          <mxGeometry x="1205" y="512.5" width="40" height="20" as="geometry" />
        </mxCell>
        <mxCell id="f2Ed95oBEs6oWtpH4PC0-77" value="" style="ellipse;html=1;shape=endState;fillColor=#000000;strokeColor=#120000;" vertex="1" parent="1">
          <mxGeometry x="1460" y="605" width="30" height="30" as="geometry" />
        </mxCell>
        <mxCell id="f2Ed95oBEs6oWtpH4PC0-78" value="Home-viewing" style="text;html=1;align=center;verticalAlign=middle;resizable=0;points=[];autosize=1;strokeColor=none;fillColor=none;fontSize=17;" vertex="1" parent="1">
          <mxGeometry x="820" y="490" width="120" height="30" as="geometry" />
        </mxCell>
        <mxCell id="f2Ed95oBEs6oWtpH4PC0-79" value="Check deze even, gaat over home-viewing" style="text;html=1;align=center;verticalAlign=middle;resizable=0;points=[];autosize=1;strokeColor=none;fillColor=none;fontSize=17;" vertex="1" parent="1">
          <mxGeometry x="650" y="720" width="340" height="30" as="geometry" />
        </mxCell>
        <mxCell id="f2Ed95oBEs6oWtpH4PC0-81" value="" style="endArrow=classic;html=1;rounded=0;fontSize=17;strokeWidth=2;" edge="1" parent="1">
          <mxGeometry width="50" height="50" relative="1" as="geometry">
            <mxPoint x="990" y="740" as="sourcePoint" />
            <mxPoint x="1040" y="690" as="targetPoint" />
          </mxGeometry>
        </mxCell>
      </root>
    </mxGraphModel>
  </diagram>
</mxfile>
